<svg xmlns="http://www.w3.org/2000/svg" xmlns:xlink="http://www.w3.org/1999/xlink" width="20" height="20" viewBox="0 0 20 20"><defs><style>.a{fill:#fff;stroke:#707070;}.b{clip-path:url(#a);}.c{fill:#707070;}</style><clipPath id="a"><rect class="a" width="20" height="20" transform="translate(436 1165)"/></clipPath></defs><g class="b" transform="translate(-436 -1165)"><g transform="translate(437.25 1165)"><path class="c" d="M15.625,0H1.875A1.922,1.922,0,0,0,0,1.875v16.25A1.922,1.922,0,0,0,1.875,20h13.75A1.922,1.922,0,0,0,17.5,18.125V1.875A1.922,1.922,0,0,0,15.625,0ZM5,17a.538.538,0,0,1-.5.5H3a.538.538,0,0,1-.5-.5V15.5A.538.538,0,0,1,3,15H4.5a.538.538,0,0,1,.5.5Zm0-5a.538.538,0,0,1-.5.5H3a.538.538,0,0,1-.5-.5V10.5A.538.538,0,0,1,3,10H4.5a.538.538,0,0,1,.5.5Zm5,5a.538.538,0,0,1-.5.5H8a.538.538,0,0,1-.5-.5V15.5A.538.538,0,0,1,8,15H9.5a.538.538,0,0,1,.5.5Zm0-5a.538.538,0,0,1-.5.5H8a.538.538,0,0,1-.5-.5V10.5A.538.538,0,0,1,8,10H9.5a.538.538,0,0,1,.5.5Zm5,5a.538.538,0,0,1-.5.5H13a.538.538,0,0,1-.5-.5V10.5A.538.538,0,0,1,13,10h1.5a.538.538,0,0,1,.5.5ZM15,7a.538.538,0,0,1-.5.5H3A.538.538,0,0,1,2.5,7V3A.538.538,0,0,1,3,2.5H14.5A.538.538,0,0,1,15,3Z"/></g></g></svg>