<svg xmlns="http://www.w3.org/2000/svg" width="15" height="17.143" viewBox="0 0 15 17.143"><defs><style>.a{opacity:0.4;}.b{fill:#707070;}</style></defs><g transform="translate(-763 -1172.429)"><g transform="translate(763 1172.429)"><path class="a" d="M11.786,7.509v.007a4.286,4.286,0,1,1-8.571,0V7.509A8.406,8.406,0,0,0,7.5,8.588,8.409,8.409,0,0,0,11.786,7.509Z"/><path class="b" d="M10.5,12.857H9.941a5.83,5.83,0,0,1-4.882,0H4.5A4.481,4.481,0,0,0,.32,15.73a1.064,1.064,0,0,0,1.02,1.413H13.664a1.063,1.063,0,0,0,1.018-1.413A4.481,4.481,0,0,0,10.5,12.857ZM11.468,3.8C11.1,2.143,10.409,0,9.311,0A1.5,1.5,0,0,0,8.4.351a1.42,1.42,0,0,1-1.743,0A1.5,1.5,0,0,0,5.74,0c-1.1,0-1.791,2.159-2.16,3.82a10.986,10.986,0,0,0,3.92.619A10.9,10.9,0,0,0,11.468,3.8Zm3.214-.528a.609.609,0,0,0-.735.174c-.014.019-1.5,2.062-6.447,2.062-4.918,0-6.415-2.022-6.447-2.062a.6.6,0,0,0-.73-.18.523.523,0,0,0-.294.651A7.793,7.793,0,0,0,7.5,8.571,7.794,7.794,0,0,0,14.971,3.92a.52.52,0,0,0-.29-.645Z"/></g></g></svg>