<svg xmlns="http://www.w3.org/2000/svg" width="20" height="17.778" viewBox="0 0 20 17.778"><defs><style>.a,.b{fill:#707070;}.a{opacity:0.749;}</style></defs><g transform="translate(0 0)"><path class="a" d="M6.606,4.2,4.679,8.053a2.234,2.234,0,0,0-.235.993v8.731H0V3.889a3.886,3.886,0,0,1,7.7-.732l-.013.006A2.226,2.226,0,0,0,6.606,4.2Z"/><path class="b" d="M19.883,8.549,17.956,4.7a1.111,1.111,0,0,0-.542-.518L13.229,2.318a1.111,1.111,0,0,0-.9,0L8.142,4.178A1.111,1.111,0,0,0,7.6,4.7L5.673,8.55a1.114,1.114,0,0,0-.117.5v8.731H10V14.444h5.556v3.333H20V9.047a1.114,1.114,0,0,0-.117-.5Zm-5.438,2.562H11.111V7.778h3.333Z"/></g></svg>